<svg xmlns="http://www.w3.org/2000/svg" viewBox="0 0 500 500"><g id="freepik--background-simple--inject-4"><path d="M437.41,168.46C423.59,146.11,399.8,130,373.8,126.25s-53.71,5.22-72,24.05c12.11-32.65-2.1-72.16-30.62-92.16s-68.41-20.67-99.21-4.41-52.22,47.81-59.32,81.9c-9.48,45.53,4.89,92.4,21.18,136C145.15,302,169.08,356,193,377.85a478.22,478.22,0,0,0,176.88-36.57c23.49-9.78,47-22.1,62.45-42.31,13.75-18,19.91-40.91,20.84-63.52C454.15,212.18,449.66,188.26,437.41,168.46Z" style="fill:#e0e0e0"></path></g><g id="freepik--Floor--inject-4"><path d="M471.23,438.25c0,.14-99.06.26-221.22.26s-221.24-.12-221.24-.26,99-.26,221.24-.26S471.23,438.1,471.23,438.25Z" style="fill:#263238"></path></g><g id="freepik--Characters--inject-4"><path d="M25.05,169.13c-3.29-22.32,7.53-43.73,29.32-48l.22,0c20.67-3.85,38.88,1.76,42.31,9.68,11.26,25.95,6.67,35.18,6.67,35.18L55.44,202.23s-25-10.91-30.23-32.46C25.16,169.56,25.09,169.34,25.05,169.13Z" style="fill:#263238"></path><path d="M98.37,146.8c-3.61-10.2-14.11-21-24.15-16.94l-30,17.36a6.32,6.32,0,0,0-3.68,7.72l22.12,70.37A19.48,19.48,0,0,0,87,238.08h0a19.48,19.48,0,0,0,13-23.87l-2.54-9.05s12.63-6,10.46-24.06C106.82,172.11,102.38,158.12,98.37,146.8Z" style="fill:#ffbe9d"></path><path d="M99,157.52c-.19.37-2.23-.39-4.61.29s-3.8,2.38-4.14,2.16c-.17-.09,0-.69.57-1.47A6.3,6.3,0,0,1,94,156.42a6,6,0,0,1,3.78.13C98.67,156.9,99.07,157.36,99,157.52Z" style="fill:#263238"></path><path d="M75.82,165.12c-.19.37-2.23-.39-4.62.29s-3.79,2.38-4.13,2.16c-.17-.09,0-.69.57-1.47A6.3,6.3,0,0,1,70.85,164a6,6,0,0,1,3.78.13C75.52,164.5,75.92,165,75.82,165.12Z" style="fill:#263238"></path><path d="M87.76,177.37c-.05-.13,1.36-.81,3.68-1.8.59-.24,1.13-.52,1.12-1a3.31,3.31,0,0,0-.93-1.69l-3.12-4.13c-4.39-5.9-7.75-10.82-7.51-11s4,4.46,8.38,10.36l3.05,4.18a3.67,3.67,0,0,1,1,2.3,1.58,1.58,0,0,1-.75,1.18,4.32,4.32,0,0,1-1,.44C89.3,177.07,87.81,177.51,87.76,177.37Z" style="fill:#263238"></path><path d="M97.45,205.16a45.78,45.78,0,0,1-24.93.41s9.22,10.22,26.07,3.67Z" style="fill:#eb996e"></path><path d="M88.39,183.42a4.46,4.46,0,0,0-4.32-.5,4,4,0,0,0-2.29,2.22,2.59,2.59,0,0,0,.62,2.9,3,3,0,0,0,3.35-.1,9.33,9.33,0,0,0,2.54-2.69,2.9,2.9,0,0,0,.48-.9.83.83,0,0,0-.26-.89" style="fill:#FF6C27"></path><path d="M81.2,181c.38-.13,1.13,2.46,3.87,3.67s5.42.14,5.54.49c.08.16-.47.68-1.63,1A6.72,6.72,0,0,1,84.4,186a5.81,5.81,0,0,1-3.08-3.12C80.91,181.78,81,181.06,81.2,181Z" style="fill:#263238"></path><path d="M73.43,156.46c-.05.71-2.52,1.09-5.23,2.22s-4.75,2.54-5.29,2.07c-.24-.23,0-1,.71-1.85a9.44,9.44,0,0,1,3.63-2.55,9.28,9.28,0,0,1,4.38-.71C72.78,155.76,73.44,156.12,73.43,156.46Z" style="fill:#263238"></path><path d="M94.55,148.35c-.27.66-2.07.56-4.06,1.1s-3.54,1.4-4.09,1c-.25-.23-.14-.85.45-1.57a6,6,0,0,1,6.56-1.65C94.27,147.53,94.66,148,94.55,148.35Z" style="fill:#263238"></path><path d="M40.29,177.4c.1.26,8.25,7,12.15,5.18,11.82-5.42,3.47-37.19,3.47-37.19l4.16,11.34,19.3-6.61L73.84,137.3,81,148.67l17.6-4.08s-8.17-21-22.76-20.16S25.35,140.54,40.29,177.4Z" style="fill:#263238"></path><path d="M49.23,177.51c-.27-.06-9.69-2.11-7.75,7.85S53,191.31,53,191,49.23,177.51,49.23,177.51Z" style="fill:#ffbe9d"></path><path d="M49.2,187.84c-.05,0-.15.16-.42.35a1.76,1.76,0,0,1-1.29.28c-1.13-.18-2.34-1.68-2.74-3.46a5.75,5.75,0,0,1,0-2.58,2,2,0,0,1,1-1.59.91.91,0,0,1,1.12.28c.19.25.16.46.22.47s.18-.21,0-.61a1.07,1.07,0,0,0-.52-.54,1.31,1.31,0,0,0-1-.07,2.5,2.5,0,0,0-1.52,1.9,6.09,6.09,0,0,0-.06,2.89c.46,2,1.85,3.67,3.37,3.81a1.91,1.91,0,0,0,1.54-.58C49.23,188.09,49.24,187.85,49.2,187.84Z" style="fill:#eb996e"></path><path d="M68.81,149.67a4.18,4.18,0,0,1-.35-1.07l-.84-2.95a92.93,92.93,0,0,0-3.34-9.51,94.72,94.72,0,0,0-4.37-9.09l-1.5-2.67a4.52,4.52,0,0,1-.51-1,4.64,4.64,0,0,1,.68.9c.41.59,1,1.48,1.65,2.6a71,71,0,0,1,4.53,9.07A72.34,72.34,0,0,1,68,145.55c.32,1.26.55,2.29.68,3A5.1,5.1,0,0,1,68.81,149.67Z" style="fill:#455a64"></path><path d="M81.06,139.87c-.09,0-.78-1.51-2.3-3.79a33.44,33.44,0,0,0-2.93-3.77,36.92,36.92,0,0,0-4.28-4,36.71,36.71,0,0,0-4.92-3.18,33.49,33.49,0,0,0-4.37-1.93c-2.57-.91-4.25-1.2-4.23-1.3a5,5,0,0,1,1.18.15,11.77,11.77,0,0,1,1.38.3c.52.14,1.14.27,1.79.5a30.39,30.39,0,0,1,4.48,1.85,35.6,35.6,0,0,1,5,3.19A34.67,34.67,0,0,1,76.18,132a29.1,29.1,0,0,1,2.89,3.89A18.42,18.42,0,0,1,80,137.5a11.06,11.06,0,0,1,.62,1.26A4.92,4.92,0,0,1,81.06,139.87Z" style="fill:#455a64"></path><path d="M92.24,140.5a22.71,22.71,0,0,0-2.14-5.28,23.49,23.49,0,0,0-10.18-9,47.76,47.76,0,0,0-13.27-3.65l-4.17-.56a10.13,10.13,0,0,1-1.53-.25,7.94,7.94,0,0,1,1.55,0c1,.06,2.43.19,4.2.4a43.88,43.88,0,0,1,13.45,3.54A23,23,0,0,1,90.42,135,15.47,15.47,0,0,1,92,139a11.2,11.2,0,0,1,.21,1.13A1.72,1.72,0,0,1,92.24,140.5Z" style="fill:#455a64"></path><path d="M35.86,174.1s-.1-.15-.24-.47l-.57-1.39c-.24-.61-.49-1.37-.8-2.25s-.6-1.9-.86-3a51.75,51.75,0,0,1-1.2-18.2c.82-7.1,2.89-13.44,5.73-17.25a14.69,14.69,0,0,1,4-3.85,10.22,10.22,0,0,1,1.35-.69,2.85,2.85,0,0,1,.49-.19c0,.06-.65.33-1.72,1a15.27,15.27,0,0,0-3.82,3.89c-2.71,3.78-4.7,10.07-5.51,17.1a54,54,0,0,0,1,18.05c.24,1.14.55,2.15.78,3l.71,2.26.48,1.42A2.49,2.49,0,0,1,35.86,174.1Z" style="fill:#455a64"></path><path d="M39.93,175.52A25.07,25.07,0,0,0,44.39,170a28,28,0,0,0,2.84-7.14,46.39,46.39,0,0,0,1.33-9.34c.14-3.36.07-6.58.06-9.5s0-5.57.16-7.78a43.28,43.28,0,0,1,.63-5.21c.11-.61.23-1.08.31-1.39a1.43,1.43,0,0,1,.14-.48,15.64,15.64,0,0,1-.25,1.9c-.17,1.22-.36,3-.46,5.2s-.1,4.83,0,7.75.12,6.14,0,9.53A45.23,45.23,0,0,1,47.7,163a27.5,27.5,0,0,1-3,7.21,19.12,19.12,0,0,1-3.28,4.1,12.64,12.64,0,0,1-1.09.93A2.38,2.38,0,0,1,39.93,175.52Z" style="fill:#455a64"></path><path d="M51.21,191.63s.15.2.21.62a3.38,3.38,0,0,1-.28,1.78,3.65,3.65,0,0,1-1.91,1.88,3.63,3.63,0,0,1-4.81-3.32,3.64,3.64,0,0,1,1.08-2.45,3.38,3.38,0,0,1,1.56-.89c.42-.1.66-.06.66,0a4.38,4.38,0,0,0-1.95,1.17,3.39,3.39,0,0,0-.87,2.21,3.21,3.21,0,0,0,4.16,2.86,3.44,3.44,0,0,0,1.75-1.59A4.32,4.32,0,0,0,51.21,191.63Z" style="fill:#fafafa"></path><path d="M74.55,223.26c-9.88-2.22-14.33-6-14.33-6l.64,4.91L70.72,231l-31,27.7c2.11,8.44,24.39,61.2,29.17,78.14s-19.85,32.38,3.61,42.37,111.65,5,113.82-13.22c1.71-14.39-10.46-59.62-15.68-78.11l21.84-2c18.83-31.75-48.95-70-61.79-73.31-11.72-3.07-25.46.42-27.77,1l-.35-1.09-3.76-2.52a10.13,10.13,0,0,1,.37,1.34c-.18,8.31-9.13,11.18-15.07,12.16A24.92,24.92,0,0,1,74.55,223.26Z" style="fill:#FF6C27"></path><g style="opacity:0.30000000000000004"><path d="M160.61,317.69a88.31,88.31,0,0,1-97-16.56c7.22,10.55,15.16,23.09,26.64,28.72,7,3.43,14.9,4.59,22.67,5.26,14.76,1.28,30.8.64,42.64-8.26,3.11,3.5,6.25,7,10.06,9.77s8.39,4.63,13.07,4.42C175.7,331.52,168,324.37,160.61,317.69Z"></path></g><path d="M147.7,347.17c8.21,6.08,17.05,13.4,25.34,19.37a12.42,12.42,0,0,0,4.86,2.18c3.67.58,5.49-1.74,7.6-4.8a48.18,48.18,0,0,0,6.29-12.79c1.09-3.43,1.64-7.61-.79-10.28-1.8-2-3.8-2.14-6.37-2.88-1-.3-2.56-5.46-2.85-6.42l-3.11,8.65-7.18,3.05-15.31-1.55Z" style="fill:#FF6C27"></path><path d="M182,336.44a5.13,5.13,0,0,1-.6,1.05,32.12,32.12,0,0,1-1.92,2.7,47.08,47.08,0,0,1-16.9,13.55c-1.27.59-2.31,1-3.05,1.28a6.24,6.24,0,0,1-1.16.36c0-.09,1.57-.71,4-2A53.06,53.06,0,0,0,179.17,340C180.93,337.82,181.9,336.39,182,336.44Z" style="fill:#263238"></path><path d="M103.56,213.45a2.13,2.13,0,0,1-.06.51,14.15,14.15,0,0,1-.34,1.43,16.31,16.31,0,0,1-2.44,4.79,19.5,19.5,0,0,1-5.94,5.31,24.71,24.71,0,0,1-9.28,3,33.48,33.48,0,0,1-17.4-2.47,23.53,23.53,0,0,1-4.64-2.72,14.13,14.13,0,0,1-1.13-.93c-.24-.22-.37-.34-.36-.36s.57.42,1.61,1.13a26.86,26.86,0,0,0,4.66,2.54A34.17,34.17,0,0,0,85.44,228a24.5,24.5,0,0,0,9.1-2.93,19.57,19.57,0,0,0,5.89-5.11,17.44,17.44,0,0,0,2.54-4.64C103.38,214.13,103.51,213.44,103.56,213.45Z" style="fill:#263238"></path><path d="M115.28,178.19a29.43,29.43,0,0,0-3.65,2.91,16.94,16.94,0,0,0-1.25,2.19,1.19,1.19,0,0,0-.16.85.82.82,0,0,0,1.19.28,2.43,2.43,0,0,0,.79-1.14,2.37,2.37,0,0,0,2.91,1.95,3.21,3.21,0,0,0,2.23-3C117.38,180.89,116.22,179.14,115.28,178.19Z" style="fill:#263238"></path><path d="M224.83,367.64c-.36-.16.08-1.77.43-4.33.08-.65.18-1.35.21-2.1s.06-1.56.08-2.41a33,33,0,0,0-.57-5.46,31.51,31.51,0,0,0-1.58-5.25c-.34-.78-.64-1.53-1-2.19s-.68-1.3-1-1.86c-1.31-2.24-2.34-3.55-2.07-3.84s1.75.63,3.57,2.77a16.93,16.93,0,0,1,1.37,1.84,22.27,22.27,0,0,1,1.32,2.29,25,25,0,0,1,1.95,5.73,25.44,25.44,0,0,1,.41,6,22.32,22.32,0,0,1-.34,2.61,15.48,15.48,0,0,1-.55,2.23C226.2,366.39,225.12,367.78,224.83,367.64Z" style="fill:#263238"></path><path d="M229.52,370.41c-.32-.25.67-1.87,1.82-4.58a23.68,23.68,0,0,0,.86-2.25c.31-.8.54-1.7.81-2.63a37.16,37.16,0,0,0,1-6.18,36.44,36.44,0,0,0-.21-6.27c-.15-.95-.25-1.87-.46-2.71s-.37-1.62-.57-2.34c-.8-2.84-1.57-4.56-1.23-4.77s1.64,1.26,3,4.14a18.57,18.57,0,0,1,.93,2.42,25.67,25.67,0,0,1,.74,2.88,26.86,26.86,0,0,1-.85,13.51,23.67,23.67,0,0,1-1.11,2.76,17.83,17.83,0,0,1-1.22,2.28C231.3,369.37,229.76,370.61,229.52,370.41Z" style="fill:#263238"></path><path d="M206.34,303c-.08,0,.29-1.16.66-3a47.22,47.22,0,0,0,.79-7.42c.11-2.92,0-5.57-.11-7.49a22.63,22.63,0,0,1-.11-3.11,16.27,16.27,0,0,1,.48,3.09,55.84,55.84,0,0,1,.26,7.53,36.77,36.77,0,0,1-1,7.48,17.42,17.42,0,0,1-.66,2.19C206.5,302.73,206.38,303,206.34,303Z" style="fill:#263238"></path><path d="M239.49,420.75s48.16,17,50.09,17.88c2.88,1.24,1.62,12.05-3,11.56-2.17-.24-37.82-1.33-42.29-1.92s-17.65-6.89-17.65-6.89Z" style="fill:#455a64"></path><path d="M258.64,440.93c.24.05.76-2.52,2.53-5.12s3.93-4.07,3.79-4.28-2.61,1-4.47,3.82S258.43,440.93,258.64,440.93Z" style="fill:#263238"></path><path d="M253.68,438.25c.24.06.9-2.23,2.39-4.71s3.15-4.16,3-4.34-2.16,1.3-3.7,3.92S253.47,438.22,253.68,438.25Z" style="fill:#263238"></path><path d="M249,436.62c.25,0,.23-2.46,1.51-5.11s3.16-4.21,3-4.4-2.4,1.17-3.74,4.05S248.76,436.68,249,436.62Z" style="fill:#263238"></path><path d="M250.28,430.34a8.63,8.63,0,0,0,.79-3.62,17,17,0,0,0-.22-4,18.33,18.33,0,0,0-.57-2.33,2.77,2.77,0,0,0-.7-1.26,1.32,1.32,0,0,0-1.69,0,2.2,2.2,0,0,0-.76,1.34,10,10,0,0,0-.15,1.29,10.72,10.72,0,0,0,.13,2.43,15,15,0,0,0,1.25,3.86,10.14,10.14,0,0,0,2,3.11c.12-.07-.62-1.27-1.46-3.34a16.22,16.22,0,0,1-1-3.74,11.24,11.24,0,0,1-.08-2.26c.08-.76.14-1.7.6-2a.48.48,0,0,1,.66,0,2.08,2.08,0,0,1,.47.89,18.42,18.42,0,0,1,.6,2.22,20.5,20.5,0,0,1,.38,3.88C250.47,428.94,250.15,430.31,250.28,430.34Z" style="fill:#263238"></path><path d="M250.26,429.84a6.89,6.89,0,0,0-3.13-.74,14.13,14.13,0,0,0-3.52.19,7.61,7.61,0,0,0-2.06.59,2.09,2.09,0,0,0-1.26,2.17,2.45,2.45,0,0,0,1.64,1.88,4.57,4.57,0,0,0,2.21.15,8.64,8.64,0,0,0,3.3-1.35,8.49,8.49,0,0,0,2.44-2.09,22.45,22.45,0,0,0-2.74,1.59,8.71,8.71,0,0,1-3.11,1.09,3.74,3.74,0,0,1-1.82-.15,1.67,1.67,0,0,1-1.11-1.25,1.28,1.28,0,0,1,.82-1.32,7.57,7.57,0,0,1,1.84-.57,16.31,16.31,0,0,1,3.35-.34C249,429.69,250.23,430,250.26,429.84Z" style="fill:#263238"></path><path d="M266.15,442c.24,0,.15-2.12,1.28-4.36s2.81-3.47,2.67-3.67-2.2.81-3.41,3.31S265.94,442.06,266.15,442Z" style="fill:#263238"></path><path d="M231.72,441.84a9.1,9.1,0,0,0,1.84,1A41.4,41.4,0,0,0,238.9,445,78.53,78.53,0,0,0,257.53,448c7.36.44,14,.57,18.84.72l5.72.09a10.66,10.66,0,0,0,2.09-.07,10.11,10.11,0,0,0-2.08-.25l-5.7-.36-18.82-.95a87.84,87.84,0,0,1-18.51-2.83C234.44,443.1,231.79,441.7,231.72,441.84Z" style="fill:#263238"></path><path d="M230.19,442.86a39.89,39.89,0,0,0,3.79-1.41,17.21,17.21,0,0,1,9.41-.89c3.66.83,6.11,3.5,7.69,5.34a29.38,29.38,0,0,0,2.63,3.09,15.44,15.44,0,0,0-2.17-3.45,19.45,19.45,0,0,0-3-3.27,11.7,11.7,0,0,0-4.93-2.51,16.19,16.19,0,0,0-9.79,1.15A12.88,12.88,0,0,0,230.19,442.86Z" style="fill:#263238"></path><path d="M186.63,399.94S138,427.1,136.27,428.24c-2.64,1.72-.4,10.93,4,9.67,2.11-.59,41.87-8.7,46.18-10s16.24-9.75,16.24-9.75Z" style="fill:#455a64"></path><path d="M171.14,423c.21,0-.43-2.77-2.76-5.2s-5-3.22-5-3,2.3,1.29,4.46,3.58S170.91,423.13,171.14,423Z" style="fill:#263238"></path><path d="M175.58,419.56c.2-.06-.53-2.46-2.51-4.77s-4.21-3.43-4.31-3.24,1.82,1.57,3.68,3.78S175.36,419.66,175.58,419.56Z" style="fill:#263238"></path><path d="M180,417.17c.22,0,.17-2.66-1.67-5.26s-4.31-3.57-4.37-3.36,2,1.42,3.7,3.84S179.71,417.21,180,417.17Z" style="fill:#263238"></path><path d="M177.6,411.2c.13-.05-.42-1.35-.8-3.56a19.66,19.66,0,0,1-.28-3.88,18.56,18.56,0,0,1,.21-2.29,2.14,2.14,0,0,1,.32-1,.49.49,0,0,1,.65-.1c.51.25.73,1.17.93,1.9a11.13,11.13,0,0,1,.3,2.25,16.45,16.45,0,0,1-.39,3.86c-.48,2.18-1,3.49-.89,3.54a9.6,9.6,0,0,0,1.45-3.4,14.46,14.46,0,0,0,.59-4,10.75,10.75,0,0,0-.28-2.41,8.82,8.82,0,0,0-.37-1.25,2.16,2.16,0,0,0-1-1.2,1.33,1.33,0,0,0-1.67.32,2.91,2.91,0,0,0-.48,1.36,18.16,18.16,0,0,0-.17,2.39,17.87,17.87,0,0,0,.46,4A8.74,8.74,0,0,0,177.6,411.2Z" style="fill:#263238"></path><path d="M177.54,410.7c.06.12,1.18-.36,3.09-.68a16.37,16.37,0,0,1,3.36-.22,7.5,7.5,0,0,1,1.9.25,1.27,1.27,0,0,1,1,1.16,1.65,1.65,0,0,1-.89,1.42,3.81,3.81,0,0,1-1.76.46,8.7,8.7,0,0,1-3.25-.56,21.53,21.53,0,0,0-3-1.1,8.81,8.81,0,0,0,2.76,1.65,8.52,8.52,0,0,0,3.48.77,4.45,4.45,0,0,0,2.15-.52,2.45,2.45,0,0,0,1.31-2.12,2.09,2.09,0,0,0-1.62-1.93A7.74,7.74,0,0,0,184,409a14.16,14.16,0,0,0-3.49.41A6.86,6.86,0,0,0,177.54,410.7Z" style="fill:#263238"></path><path d="M146.36,436.63c0,.08.81-.42,1.26-1.72a6.86,6.86,0,0,0-.52-5.11,18.3,18.3,0,0,0-1.39-2.43,8.85,8.85,0,0,0-1.46-1.8,2.84,2.84,0,0,0-1.44-.73c-.39,0-.59,0-.59.09s.82.12,1.62,1.06a10,10,0,0,1,1.22,1.79,23.78,23.78,0,0,1,1.29,2.37,7.21,7.21,0,0,1,.71,4.6C146.8,435.94,146.25,436.54,146.36,436.63Z" style="fill:#263238"></path><path d="M163.92,425.33c.21,0,.31-2.32-1.33-4.56s-3.89-2.91-3.92-2.7,1.81,1.13,3.25,3.18S163.67,425.36,163.92,425.33Z" style="fill:#263238"></path><path d="M197.83,419.43a17.15,17.15,0,0,0-2.14,1.26,60.66,60.66,0,0,1-6,3.11,77.19,77.19,0,0,1-9.39,3.41c-3.61,1.06-7.64,2-11.9,2.94-8.53,1.82-16.26,3.49-21.84,4.75L140,436.43a14,14,0,0,0-2.4.67,15.79,15.79,0,0,0,2.46-.36l6.66-1.27c5.61-1.11,13.34-2.69,21.88-4.52,4.27-.91,8.32-1.9,12-3a67.07,67.07,0,0,0,9.41-3.61,46.24,46.24,0,0,0,5.91-3.36A12.87,12.87,0,0,0,197.83,419.43Z" style="fill:#263238"></path><path d="M199.51,420.17a13,13,0,0,0-3.86-1.32,16.25,16.25,0,0,0-9.85.51,11.71,11.71,0,0,0-4.44,3.29,20.27,20.27,0,0,0-2.45,3.74,15.23,15.23,0,0,0-1.56,3.77,27.94,27.94,0,0,0,2.07-3.49c1.26-2.08,3.23-5.12,6.7-6.55a17.2,17.2,0,0,1,9.42-.7C198,419.85,199.48,420.3,199.51,420.17Z" style="fill:#263238"></path><path d="M290.32,335.2s13.59,6,12.55,21.6c-2,29.95-64.93,58.7-64.93,58.7L161,356.39l-4.92-2.4S267.88,320.73,290.32,335.2Z" style="fill:#263238"></path><path d="M199.79,387.15a15.3,15.3,0,0,0,2.2-1.27c1.39-.87,3.37-2.16,5.81-3.78,4.87-3.25,11.51-7.87,18.67-13.19s13.51-10.36,18-14.09c2.25-1.87,4.06-3.4,5.29-4.48a14.67,14.67,0,0,0,1.85-1.74,16.81,16.81,0,0,0-2.06,1.49l-5.45,4.27c-4.6,3.61-11,8.56-18.14,13.88s-13.73,10-18.51,13.38l-5.66,4A15.42,15.42,0,0,0,199.79,387.15Z" style="fill:#455a64"></path><path d="M266.55,345.69c0-.19-3.53-.8-7.82.16s-7.29,3-7.17,3.15,3.19-1.45,7.34-2.34S266.54,346,266.55,345.69Z" style="fill:#455a64"></path><path d="M259.93,340.49c-.06-.2-2.72.75-5,3.26S251.8,349,252,349s1.28-2.35,3.49-4.69S260.05,340.71,259.93,340.49Z" style="fill:#455a64"></path><path d="M287.43,437.7c.05-.09-.94-.35-2.12.49a7.53,7.53,0,0,0-2.66,4.52,9.15,9.15,0,0,0,.37,5.21c.48,1.27,1.07,1.89,1.15,1.83a15.23,15.23,0,0,0-.6-2,10.6,10.6,0,0,1-.12-4.86,8.14,8.14,0,0,1,2.22-4.23C286.59,437.81,287.44,437.84,287.43,437.7Z" style="fill:#263238"></path><path d="M245.12,420.58s-108.73-82.77-113.28-84.65-15.32-10.07-26.82-7.75S82.7,339.9,76.61,354.33c-3.48,8.24-5.86,22.55-7.26,33.31a50,50,0,0,0,9.19,36.41c3.53,4.73,8,8.95,13.5,11.09,1.16.45,2.37.86,3.61,1.22,21.23,6.19,44-1.93,57.45-19.51L156,413s72.64,32.63,73.83,32.32Z" style="fill:#263238"></path><path d="M105.56,390.1s.2.12.6.32l1.82.87,7,3.29,26.14,12c11.11,5.06,24.42,11.07,39.35,17.73s31.5,14,49.22,21.38l.32.13.18-.3,10.1-16.38,5.15-8.35.2-.32-.31-.22L162.3,359l-25-18.3-6.78-4.93-1.77-1.26c-.4-.28-.62-.41-.62-.41s.18.17.57.47l1.73,1.33,6.69,5c5.87,4.37,14.32,10.69,24.8,18.51l82.91,61.49-.1-.54-5.15,8.35-10.1,16.39.51-.17c-17.71-7.4-34.28-14.68-49.23-21.28l-39.43-17.57-26.24-11.77L108,391.15l-1.84-.8C105.78,390.17,105.56,390.1,105.56,390.1Z" style="fill:#455a64"></path><path d="M243.7,257.24c-3.6-6.24-11.31-10.12-18.31-8.43-3.22.78-6.4,3-7,6.25-.76,4.06,2.56,7.59,4.27,11.34a15.74,15.74,0,0,1-4.23,18.17c-4.43,3.62-6.46,3.68-10.34,1.17-.14-1.25-.32-2.47-.51-3.66-1-5.82-6.85-12.26-10.84-16.61-3.72-4.05-11.58-6-15.82-9.51-9.46-7.81-17.38-22.83-20-34.81H150.07l-22,5.52s-5.45,18.73,0,36.6S139.57,287,139.57,287c2.8,9.24,5.68,18.66,11.3,26.51s14.55,14,24.2,13.68c9.85-.32,18.21-6.89,25.19-13.86A27.58,27.58,0,0,0,208,297.46c7-.58,14.06-1.93,20.42-4.95,6.51-3.09,12.29-8.05,15.46-14.52S247.3,263.48,243.7,257.24Z" style="fill:#455a64"></path><path d="M186.5,291.47a6.28,6.28,0,0,0,11.33-.18c.74-1.62.84-3.63,2.16-4.83.91-.84,2.2-1.08,3.26-1.72a6.46,6.46,0,0,0,2.63-6.3,15,15,0,0,0-2.9-6.52,45.7,45.7,0,0,0-5.14-6.14c-.9-.9-2-1.82-3.28-1.65-1.55.22-2.36,1.93-2.86,3.42a127.14,127.14,0,0,0-5.32,22.19" style="fill:#263238"></path><path d="M161.29,223.91c0-1.14-3.72-24.58-6.29-27.72s-13.43-9.72-13.43-9.72-12.86,0-15.72-1.71-10.57-6.57-10.57-6.57-6.57,4.28-8.57,9.43.28,11.14,0,11.71,14.57,10.58,16.57,13.72,3.14,16,4.29,17.15S161.29,223.91,161.29,223.91Z" style="fill:#455a64"></path><path d="M145.87,195.45s-.65.47-1.76,1.41a19.94,19.94,0,0,0-4,4.61,18.91,18.91,0,0,0-1.85,3.77,15,15,0,0,0-1,4.69,7.6,7.6,0,0,0,1.46,4.92,9.67,9.67,0,0,0,4.64,3.07,32.51,32.51,0,0,0,5.6,1.28c1.81.32,3.66.43,5.1-.42a3.26,3.26,0,0,0,1.51-1.73,5.79,5.79,0,0,0,.25-2.26c-.12-1.5-.32-2.93-.45-4.22-.26-2.53-.48-4.61-.64-6.13-.07-.67-.11-1.23-.15-1.67a2.32,2.32,0,0,1,0-.58,2.21,2.21,0,0,1,.12.57c.07.44.15,1,.25,1.66.2,1.51.47,3.58.81,6.11.15,1.3.37,2.69.51,4.24a6,6,0,0,1-.25,2.43,3.77,3.77,0,0,1-1.7,2,5.67,5.67,0,0,1-2.63.73,13.08,13.08,0,0,1-2.79-.22,32.85,32.85,0,0,1-5.7-1.3,10.14,10.14,0,0,1-4.87-3.25,8.16,8.16,0,0,1-1.53-5.24,14.77,14.77,0,0,1,1-4.83A19.47,19.47,0,0,1,144,196.7a14,14,0,0,1,1.38-1A2.2,2.2,0,0,1,145.87,195.45Z" style="fill:#263238"></path><path d="M128.77,192.43c-.05,0,.2-.62,1-1.14a3.61,3.61,0,0,1,5.58,3,2,2,0,0,1-.39,1.48c-.09,0,.13-.57,0-1.45a3.41,3.41,0,0,0-5-2.73A12.74,12.74,0,0,0,128.77,192.43Z" style="fill:#263238"></path><path d="M107.65,187.86c.09,0,.46,1,1.34,2.47a19.2,19.2,0,0,0,10.18,8.33c1.63.56,2.7.73,2.69.82a2.18,2.18,0,0,1-.77,0,12.9,12.9,0,0,1-2-.44,17.4,17.4,0,0,1-10.39-8.5,11.81,11.81,0,0,1-.83-1.91A2.16,2.16,0,0,1,107.65,187.86Z" style="fill:#263238"></path><path d="M107.45,188.3a23.54,23.54,0,0,1-2.08-3.28c-.27-.5-.44-1-.76-1.52a2,2,0,0,0-1.44-.93,1.73,1.73,0,0,0-1.54.9,3,3,0,0,0-.29,1.72,7.63,7.63,0,0,0,2.81,5.25,9.23,9.23,0,0,0,6,2A42.44,42.44,0,0,0,107.45,188.3Z" style="fill:#FF6C27"></path><path d="M155.93,213.32a5.94,5.94,0,0,0-4.61-1.9,11.7,11.7,0,0,0-4.92,1.36,9,9,0,0,0-2.85,2,4,4,0,0,0-1,3.24s6.42,1.93,8.57,1.66,3.93-.09,4.81-2.85A9.42,9.42,0,0,0,155.93,213.32Z" style="fill:#263238"></path><path d="M236.15,250.16c-3.05.61-4.15,3.84-4.42,6.48a13.1,13.1,0,0,0,.58,5.77,8.47,8.47,0,0,0,3.57,4.47,8.82,8.82,0,0,0,5.91.89,5.43,5.43,0,0,0,3.45-1.79c1.24-1.6.83-3.56-.26-5.9-2-4.26-4.66-7.72-8.83-9.92" style="fill:#263238"></path><path d="M174.89,326.58c1.42,2.15,2.89,4.45,3,7s-1.75,5.42-4.33,5.39c-2.17,0-3.79-1.93-5.1-3.67-3.86-5.13-8.42-11.51-12.28-16.64a94.08,94.08,0,0,0,18-11.62c2.69,7.44.65,12.17,1,20.06" style="fill:#455a64"></path><path d="M205.49,310a4.35,4.35,0,0,1,2.48-2.66,20.2,20.2,0,0,0,3-1.42,2.77,2.77,0,0,0,1.32-2.83,3,3,0,0,0-2.23-1.83,6.45,6.45,0,0,0-7.92,4.57c-.53,2,.13,4.41,2,5.29" style="fill:#ffbe9d"></path><path d="M182.83,316l14.95,1.65,3.24-4,2.07,1.82s-4.32,6.9-6,6.84-14.31-2.51-16-2.92S179.13,315.41,182.83,316Z" style="fill:#ffbe9d"></path><path d="M179.7,320.77,194.17,322l2.84-3.49,1.82,1.6S193.6,327,192.14,327s-12.48-2.87-13.94-3.22S176.45,320.29,179.7,320.77Z" style="fill:#ffbe9d"></path><path d="M187.52,311.35l13.92.58,3.39-4.86,1.29.65s-2.77,10.78-4.43,10.72-14.22-3.27-15.89-3.67S183.81,310.81,187.52,311.35Z" style="fill:#ffbe9d"></path><path d="M205.43,310.22a12.87,12.87,0,0,1-1,3.6,35.87,35.87,0,0,1-1.64,3.74,5.92,5.92,0,0,1-.31.52,1.2,1.2,0,0,1-.28.3.82.82,0,0,1-.35.11,4,4,0,0,1-1.3,0l-2.54-.42a80.27,80.27,0,0,1-8.81-2.05c-1.11-.33-2-.63-2.61-.85a3.52,3.52,0,0,1-.93-.41c0-.07,1.4.34,3.63.91s5.34,1.27,8.81,1.89l2.53.43a3.61,3.61,0,0,0,1.13,0c.07,0,.22,0,.21-.06l.11-.14a5.35,5.35,0,0,0,.29-.47,40.21,40.21,0,0,0,1.71-3.65c.46-1.06.8-1.93,1-2.53A5.28,5.28,0,0,1,205.43,310.22Z" style="fill:#eb996e"></path><path d="M201.23,318.44a2.6,2.6,0,0,1-.4.76,13.35,13.35,0,0,1-1.44,1.88,6.44,6.44,0,0,1-1.29,1.07,3.75,3.75,0,0,1-1.88.52,7.9,7.9,0,0,1-2.08-.32,17.22,17.22,0,0,0-2.14-.44c-3-.53-5.65-1.16-7.57-1.62a21.15,21.15,0,0,1-3.1-.83,17.74,17.74,0,0,1,3.17.47c1.95.37,4.62.94,7.59,1.46,1.51.16,2.91.81,4.13.8a4.07,4.07,0,0,0,2.91-1.37C200.5,319.44,201.15,318.38,201.23,318.44Z" style="fill:#eb996e"></path><path d="M60.86,222.15s-24,15.43-21.12,40.39,29,42.41,35.09,47.76,43,23.37,72.57,12.47c30.82-11.35,43-33.71,45.88-42.59s4.55-25.86-.09-30.85-19.25-12.83-22.82-10,0,14.62-19.25,16.76-71.3-22.82-72.37-23.18S60.86,222.15,60.86,222.15Z" style="fill:#FF6C27"></path><g style="opacity:0.30000000000000004"><path d="M137.07,256.35l-8.6-4.4-2.81-25.07c-6.51-4.38-14.27-4.18-20.84.11-2.85,1.85-5.1,4.48-7.6,6.78s-5.49,4.36-8.87,4.65c-1.48.13-3-.08-4.45.13A4.15,4.15,0,0,0,80.43,241c-.46,1.41-.09,2.86,2.21,3.72l9.46,4.46s-2.72,4.89.85,13.34,11.73,5.76,11.73,5.76.13,16.53,10.94,16.64c5.51.06,9.07-3.84,13.45-16.25a19.73,19.73,0,0,1,13.43-12.42C144,255.69,136,257,137.07,256.35Z"></path></g><path d="M182.07,241.74l-.24-.09-.69-.28c-.61-.25-1.51-.61-2.7-1a22.75,22.75,0,0,0-4.39-1.07,7.88,7.88,0,0,0-2.77.09,3,3,0,0,0-1.29.68,2.67,2.67,0,0,0-.72,1.32,23,23,0,0,1-2.75,6.81,21.67,21.67,0,0,1-2.51,3.26,10.24,10.24,0,0,1-1.59,1.48,13.62,13.62,0,0,1-1.92,1.13,30.4,30.4,0,0,1-9,2.56,29.9,29.9,0,0,1-4.94.26l-2.5-.12a17.44,17.44,0,0,0-2.5.12,11,11,0,0,0-5.84,2.23l0,0a18,18,0,0,0-5.33,6.75,24.51,24.51,0,0,0-2.13,7.73A36.47,36.47,0,0,0,129.6,287c1,3.7,2.1,6.6,2.82,8.6.36,1,.64,1.73.84,2.29l.21.6.06.21s-.05-.06-.11-.19-.15-.35-.25-.58c-.23-.55-.53-1.31-.92-2.27a85.91,85.91,0,0,1-3-8.57,36.41,36.41,0,0,1-1.45-13.53,25,25,0,0,1,2.14-7.89,18.58,18.58,0,0,1,5.46-6.95l0,0a11.43,11.43,0,0,1,6.14-2.39,18.5,18.5,0,0,1,2.57-.12l2.51.13a31.87,31.87,0,0,0,13.67-2.74,9.85,9.85,0,0,0,3.38-2.49,20.86,20.86,0,0,0,2.48-3.18,22.4,22.4,0,0,0,2.76-6.67,2.94,2.94,0,0,1,.85-1.49,3.36,3.36,0,0,1,1.44-.74,8,8,0,0,1,2.88,0,22,22,0,0,1,4.43,1.16c1.18.42,2.07.82,2.67,1.09l.67.33C182,241.68,182.08,241.73,182.07,241.74Z" style="fill:#263238"></path><path d="M122.71,306.24a6.18,6.18,0,0,1-.54-1.26,32.38,32.38,0,0,1-1.14-3.53,48.45,48.45,0,0,1-1.16-5.4,49.69,49.69,0,0,1-.22-13.49,47.23,47.23,0,0,1,1-5.43c.37-1.53.73-2.75,1-3.57a7.27,7.27,0,0,1,.5-1.27,6.07,6.07,0,0,1-.3,1.33c-.24.84-.54,2.06-.86,3.59s-.63,3.36-.86,5.4a53.42,53.42,0,0,0,.22,13.37c.3,2,.65,3.86,1,5.37s.71,2.74,1,3.57A7.71,7.71,0,0,1,122.71,306.24Z" style="fill:#263238"></path><path d="M96.52,250.24a9.5,9.5,0,0,1-2.49-.59,39.43,39.43,0,0,1-5.72-2.33A37.57,37.57,0,0,1,83,244.11a9.4,9.4,0,0,1-2-1.65,16.51,16.51,0,0,1,2.16,1.35,57.1,57.1,0,0,0,5.31,3,55.82,55.82,0,0,0,5.6,2.45A18.22,18.22,0,0,1,96.52,250.24Z" style="fill:#263238"></path><path d="M46.58,240.42a4.82,4.82,0,0,1,.8-.87,17.82,17.82,0,0,1,2.54-2,20.14,20.14,0,0,1,20.44-1.06,17.65,17.65,0,0,1,2.74,1.72A4.53,4.53,0,0,1,74,239c-.06.09-1.35-1-3.78-2.18a20.78,20.78,0,0,0-20.08,1C47.82,239.27,46.65,240.5,46.58,240.42Z" style="fill:#263238"></path><path d="M189.91,287.62a2.23,2.23,0,0,1-.19.35c-.15.24-.35.56-.6,1-.54.85-1.28,2.16-2.41,3.71a81.61,81.61,0,0,1-10.48,12.46,78.63,78.63,0,0,1-19.58,14.07,71.25,71.25,0,0,1-13.36,5,64.88,64.88,0,0,1-15.19,2c-2.63.13-5.22-.06-7.78-.15-2.55-.27-5.07-.44-7.51-.89a97.49,97.49,0,0,1-13.92-3.19,93.52,93.52,0,0,1-22-10,69.62,69.62,0,0,1-12.71-10.14,20.25,20.25,0,0,1-1.74-1.88l-1.21-1.43-.74-.88a1.9,1.9,0,0,1-.24-.31s.1.09.28.28l.78.85,1.25,1.38a22.25,22.25,0,0,0,1.76,1.85,72.4,72.4,0,0,0,12.77,10A94.66,94.66,0,0,0,99,321.59a99.77,99.77,0,0,0,13.86,3.15c2.42.44,4.93.6,7.46.87,2.55.09,5.13.28,7.74.15a64.38,64.38,0,0,0,15.07-2,71.56,71.56,0,0,0,13.28-5A78.8,78.8,0,0,0,176,304.85a84.19,84.19,0,0,0,10.57-12.3c1.16-1.54,1.92-2.82,2.49-3.66l.64-.95A2,2,0,0,1,189.91,287.62Z" style="fill:#263238"></path><path d="M84.31,315.93c-7.46-34,6.13-67.89,6.13-67.89l-5-2.62-.33.71a94.69,94.69,0,0,0-14.54,60.94A54.66,54.66,0,0,0,84.31,315.93Z" style="fill:#fafafa"></path><path d="M117.53,243.39a11.27,11.27,0,0,0-3.86,8.37c-.18,3.22-.22,6.81-2.45,9.14-2.64,2.75-7.52,2.31-10.33-.27s-3.81-6.66-3.62-10.47c.4-7.55,5.7-16.31,12.57-19.48s12-6,24.15-8.53L129.92,242S119.28,242,117.53,243.39Z" style="fill:#455a64"></path><path d="M127.49,237.25a8.12,8.12,0,0,1-.21-1.52c-.09-1.08-.2-2.46-.34-4.08l.39.06a9.81,9.81,0,0,1-1.81,3l-.58.65.17-.86a35.88,35.88,0,0,0,.63-6.24,36.92,36.92,0,0,0-1.4-10.7c-.74-2.67-1.47-4.24-1.38-4.28a5.44,5.44,0,0,1,.56,1.08,27.53,27.53,0,0,1,1.18,3.1,34,34,0,0,1,1.56,10.81,33.07,33.07,0,0,1-.69,6.33l-.41-.21a9.4,9.4,0,0,0,1.79-2.84l.35-.86,0,.92c.07,1.63.12,3,.17,4.1A8.34,8.34,0,0,1,127.49,237.25Z" style="fill:#263238"></path><path d="M126.66,223.94a4.49,4.49,0,0,1-.63.21c-.42.13-1,.31-1.82.57a56.31,56.31,0,0,0-6.48,2.57c-1.34.62-2.78,1.35-4.31,2.16a55,55,0,0,0-4.79,2.76,27.22,27.22,0,0,0-8.69,8.95,19.43,19.43,0,0,0-2.41,12.09,13.17,13.17,0,0,0,1.79,5.1,9.26,9.26,0,0,0,3.51,3.1,9,9,0,0,0,3.71,1.12,7.09,7.09,0,0,0,2.89-.54,4.6,4.6,0,0,0,1.59-1,3.71,3.71,0,0,0,.4-.51,1.11,1.11,0,0,1-.32.58,4.38,4.38,0,0,1-1.59,1.08,7.26,7.26,0,0,1-3,.64,9.19,9.19,0,0,1-3.88-1.08,9.66,9.66,0,0,1-3.7-3.19,13.61,13.61,0,0,1-1.91-5.27,19.75,19.75,0,0,1,2.44-12.42,27.33,27.33,0,0,1,8.88-9.09,53.14,53.14,0,0,1,4.85-2.74c1.54-.8,3-1.51,4.35-2.11a49.86,49.86,0,0,1,6.58-2.44c.8-.22,1.42-.38,1.85-.47A2.91,2.91,0,0,1,126.66,223.94Z" style="fill:#263238"></path><path d="M99.8,259.33c-.06,0-.33-.41-.53-1.2a8.68,8.68,0,0,1-.13-3.14,7.06,7.06,0,0,1,1.62-4.08,27,27,0,0,0-1.1,4.15A16.17,16.17,0,0,0,99.8,259.33Z" style="fill:#263238"></path><path d="M104.54,262.54a5.86,5.86,0,0,1-1.05-3.61,7.27,7.27,0,0,1,.8-3.67c.17,0-.26,1.67-.28,3.67S104.71,262.48,104.54,262.54Z" style="fill:#263238"></path><path d="M142.83,225.58c1,2.4,2,5.08,1.06,7.52-1.19,3.22-5,4.43-8.32,5.36-6.63,1.89-13.3,4.48-18.23,9.3s-7.75,12.31-5.43,18.8a9.61,9.61,0,0,0,5.54,6c3,1,6.51-.15,8.85-2.34s3.06-4.83,4-7.89a10.93,10.93,0,0,1,3-4.91c1.53-1.22,3.68-1.11,5.64-1.1A35.76,35.76,0,0,0,156.13,252l-3.58-.53a10.1,10.1,0,0,0,4.3-4l-2.28,1.89A32.44,32.44,0,0,0,156.06,230" style="fill:#455a64"></path><path d="M155.71,229.92a29.36,29.36,0,0,1,.61,4.83,38,38,0,0,1-1.69,13.35l-.25-.2,2.65-1.41.55-.29-.3.55a14.19,14.19,0,0,1-5.25,5.31l-.08-.38,3.27.3.59.05-.49.34a22.92,22.92,0,0,1-8.55,3.53,35.42,35.42,0,0,1-4.91.61c-1.67.12-3.4,0-5.09.1a7.31,7.31,0,0,0-2.46.52,4.68,4.68,0,0,0-1.95,1.55,17.29,17.29,0,0,0-2.2,4.83,18,18,0,0,1-2.3,5.1,11.19,11.19,0,0,1-4.26,3.84,8.28,8.28,0,0,1-7.45-.18,9.6,9.6,0,0,1-4.52-5.71A19.26,19.26,0,0,1,113.1,253a22.12,22.12,0,0,1,8.42-9.09,40.54,40.54,0,0,1,5.11-2.42c1.65-.74,3.26-1.43,4.83-2,3.13-1.15,6.19-1.43,8.53-2.59a6.48,6.48,0,0,0,2.69-2.31,7.76,7.76,0,0,0,1-2.83,10.7,10.7,0,0,0-.12-4.21c-.22-.94-.45-1.4-.42-1.42a6.11,6.11,0,0,1,.53,1.4,10.59,10.59,0,0,1,.21,4.26,7.93,7.93,0,0,1-1,2.94,6.69,6.69,0,0,1-2.77,2.43c-2.41,1.22-5.45,1.52-8.54,2.68-1.55.54-3.13,1.24-4.78,2a42.44,42.44,0,0,0-5.06,2.43,21.75,21.75,0,0,0-8.21,8.94,19.61,19.61,0,0,0-1.89,6.33,12,12,0,0,0-.13,1.7,14.29,14.29,0,0,0,0,1.73,12.44,12.44,0,0,0,.58,3.41,9.09,9.09,0,0,0,4.28,5.41,7.76,7.76,0,0,0,7,.17,10.75,10.75,0,0,0,4.06-3.66,18.13,18.13,0,0,0,2.25-5,17.3,17.3,0,0,1,2.28-5,5.18,5.18,0,0,1,2.15-1.7,7.83,7.83,0,0,1,2.63-.55c1.76-.08,3.44,0,5.1-.09a34.42,34.42,0,0,0,4.84-.59,22.79,22.79,0,0,0,8.4-3.42l.1.39-3.27-.32-.65-.06.57-.33a13.78,13.78,0,0,0,5.13-5.13l.24.25-2.66,1.38-.37.2.13-.4a38.83,38.83,0,0,0,1.83-13.24c0-1.57-.19-2.78-.28-3.6l-.12-.92A1.54,1.54,0,0,1,155.71,229.92Z" style="fill:#263238"></path><path d="M113.66,270.06a5,5,0,0,1-.11-6.35,14.52,14.52,0,0,0-.55,3.19A15.41,15.41,0,0,0,113.66,270.06Z" style="fill:#263238"></path><path d="M117.89,272.71c-.06,0-.37-.31-.74-1a7.45,7.45,0,0,1-.81-2.83,7.19,7.19,0,0,1,.78-4.06c.18,0-.39,1.83-.26,4A17.3,17.3,0,0,0,117.89,272.71Z" style="fill:#263238"></path><path d="M124.43,271.8a6.87,6.87,0,0,1-2.33-6.31c.15,0,.17,1.54.83,3.28S124.55,271.7,124.43,271.8Z" style="fill:#263238"></path></g><g id="freepik--speech-bubble--inject-4"><path d="M134.75,152.48a25.25,25.25,0,1,1,6.36,6l-8.68,3.84Z" style="fill:#fafafa"></path><path d="M162.6,135.94a4.69,4.69,0,0,0-1-2.6,4.46,4.46,0,0,0-2.25-1.57,3.63,3.63,0,0,0-4.08,1.62,3.62,3.62,0,0,0-1-1.23,3.72,3.72,0,0,0-2.79-.72,4.5,4.5,0,0,0-2.42,1.3,4.64,4.64,0,0,0-1.34,2.46,5.7,5.7,0,0,0,.5,3.52,8,8,0,0,0,2.6,2.75c1.74,1.19,4,2.69,4,2.69s2.09-1.38,4-2.36a8,8,0,0,0,2.91-2.42A5.72,5.72,0,0,0,162.6,135.94Z" style="fill:#FF6C27"></path><path d="M155,112.22a1.73,1.73,0,0,1,.43,0l1.29,0c.29,0,.6,0,1,0l1.14.16,1.33.19,1.48.37a23.91,23.91,0,0,1,7.18,3.13,25.7,25.7,0,0,1,7.43,7.23,26,26,0,0,1,4.21,11.82,25,25,0,0,1,.07,3.47c0,.59,0,1.19-.11,1.78l-.27,1.79a25.51,25.51,0,0,1-2.41,7.07,27.34,27.34,0,0,1-4.62,6.35,26.89,26.89,0,0,1-6.65,4.78,24.39,24.39,0,0,1-8.11,2.49,15.6,15.6,0,0,1-2.16.18,20,20,0,0,1-2.19,0,26.1,26.1,0,0,1-4.38-.55,25.63,25.63,0,0,1-8.71-3.67l.26,0-8.88,3.56-.52.21.15-.55q1.34-4.87,2.61-9.49l0,.24a25.55,25.55,0,0,1-4.74-10.85,22.82,22.82,0,0,1-.34-5.56,18.15,18.15,0,0,1,.25-2.67c.07-.43.14-.86.2-1.29s.21-.85.31-1.26a25.38,25.38,0,0,1,9.91-14.44,24.11,24.11,0,0,1,5.89-3.11l1.33-.48,1.26-.32,1.16-.28c.37-.08.72-.11,1.06-.16.67-.09,1.26-.21,1.78-.23l1.3,0h.8a1.1,1.1,0,0,1,.27,0l-.27,0-.8.07-1.29.08c-.52,0-1.1.17-1.76.27a25.24,25.24,0,0,0-20.19,18.73c-.1.41-.23.82-.3,1.24s-.13.84-.19,1.27a17.48,17.48,0,0,0-.24,2.62,22.93,22.93,0,0,0,.36,5.45A25.13,25.13,0,0,0,135,152.59l.08.11,0,.13q-1.26,4.59-2.59,9.49l-.38-.33,8.88-3.58.14,0,.12.08a25.21,25.21,0,0,0,12.8,4.13c.72,0,1.43,0,2.14,0a16.69,16.69,0,0,0,2.12-.18,23.69,23.69,0,0,0,7.93-2.43,24.68,24.68,0,0,0,11-10.87,24.68,24.68,0,0,0,2.39-6.91l.27-1.76c.09-.58.08-1.16.12-1.74a25,25,0,0,0-11.39-22.23,24.33,24.33,0,0,0-7.07-3.19l-1.46-.39-1.32-.21-1.12-.19c-.35,0-.66-.05-.94-.07l-1.29-.09A3.43,3.43,0,0,1,155,112.22Z" style="fill:#263238"></path></g></svg>