<?xml version="1.0" standalone="no"?>
<!DOCTYPE svg PUBLIC "-//W3C//DTD SVG 20010904//EN"
 "http://www.w3.org/TR/2001/REC-SVG-20010904/DTD/svg10.dtd">
<svg version="1.0" xmlns="http://www.w3.org/2000/svg"
 width="500.000000pt" height="500.000000pt" viewBox="0 0 500.000000 500.000000"
 preserveAspectRatio="xMidYMid meet">

<g transform="translate(0.000000,500.000000) scale(0.100000,-0.100000)"
fill="#000000" stroke="none">
<path d="M2103 4035 c-152 -29 -235 -56 -343 -111 -163 -84 -278 -199 -367
-371 -82 -156 -113 -272 -133 -488 -25 -276 -37 -325 -127 -519 -35 -77 -70
-165 -78 -195 -58 -227 -67 -317 -39 -430 23 -95 66 -177 130 -249 133 -149
318 -238 579 -277 113 -17 471 -21 495 -5 10 7 -18 10 -90 11 l-105 2 80 8
c76 7 265 46 265 55 0 2 -14 38 -31 81 -67 168 -121 354 -150 521 -7 39 -13
72 -14 72 -2 0 -19 -7 -38 -15 -120 -50 -234 27 -327 220 -98 203 -93 353 12
379 58 15 153 -37 251 -136 43 -43 80 -78 82 -78 3 0 5 26 5 58 l0 59 98 6
c53 4 123 7 155 7 57 0 57 0 57 -30 0 -100 99 -231 200 -265 205 -68 407 69
414 281 2 62 4 67 34 85 20 14 44 19 69 17 l38 -3 22 -125 c30 -174 33 -161
-29 -144 -29 7 -54 11 -57 9 -2 -3 1 -36 8 -74 17 -109 19 -105 -44 -98 -30 3
-81 17 -113 31 l-57 26 43 -40 c49 -44 125 -67 187 -56 l37 7 -8 76 -7 76 24
-7 c13 -4 39 -10 58 -13 l33 -6 -7 64 -7 64 41 -38 c23 -21 53 -42 67 -47 47
-18 114 -12 160 15 l42 25 4 -24 c11 -58 231 -384 348 -516 43 -48 26 -19 -42
72 -84 111 -182 265 -244 382 l-54 103 24 44 c90 162 23 411 -128 480 -105 48
-209 -3 -262 -127 l-17 -39 -14 55 c-26 106 -54 190 -62 190 -9 0 -6 -27 20
-177 25 -146 25 -143 -11 -143 -17 0 -48 -9 -70 -20 l-38 -20 -22 45 c-12 25
-42 62 -67 83 -25 20 -59 52 -76 70 -20 20 -40 32 -57 32 -53 0 -196 -42 -241
-71 -53 -34 -107 -104 -124 -163 l-12 -41 -84 -7 c-46 -3 -116 -6 -156 -7
l-71 -1 5 43 c3 23 11 80 19 127 8 47 14 88 14 93 0 4 37 7 83 7 263 1 457
122 575 360 28 58 62 144 74 193 13 48 26 87 30 87 4 0 32 -38 63 -84 64 -97
170 -201 250 -242 60 -31 65 -39 36 -49 -26 -8 -37 -43 -19 -61 8 -8 44 -17
81 -21 72 -6 97 4 97 38 0 22 -54 59 -85 59 -31 0 -163 85 -223 143 -92 89
-105 119 -22 49 131 -111 274 -182 366 -182 47 0 58 29 44 117 -30 185 -160
398 -311 509 -67 49 -167 89 -264 107 -44 8 -131 27 -194 41 -135 31 -239 43
-421 50 -114 4 -154 1 -257 -19z m792 -596 c-89 -248 -226 -394 -425 -453 -71
-21 -250 -34 -250 -18 0 7 8 12 17 12 34 0 150 34 225 65 193 82 347 232 429
418 13 30 25 54 27 52 2 -2 -8 -36 -23 -76z m-1618 -569 c-6 -128 -38 -253
-103 -405 -25 -60 -64 -162 -85 -225 l-38 -115 0 62 c-1 58 4 71 65 188 36 70
74 152 85 183 24 68 55 243 65 367 10 118 18 80 11 -55z m2236 106 c18 -7 48
-30 66 -52 93 -106 107 -287 30 -393 -35 -50 -75 -71 -131 -71 -110 0 -201
132 -200 291 1 168 114 276 235 225z m-783 -108 c17 -22 20 -22 79 -10 34 7
67 15 74 17 7 3 33 -11 58 -30 53 -38 95 -113 105 -186 16 -118 -72 -250 -191
-284 -248 -73 -446 216 -290 421 29 37 109 94 133 94 8 0 22 -10 32 -22z
m-1540 -284 c-26 -77 -132 -288 -125 -249 6 28 137 315 142 311 2 -2 -6 -29
-17 -62z m-155 -525 c-4 -43 -11 -76 -16 -73 -11 6 -12 71 -2 139 11 80 26 25
18 -66z m33 -95 c32 -158 169 -309 400 -440 42 -24 73 -44 69 -44 -23 0 -173
66 -242 107 -102 59 -173 133 -219 224 -31 61 -36 82 -36 140 0 38 4 69 9 69
4 0 13 -25 19 -56z m396 -474 c33 -13 98 -34 145 -47 51 -13 68 -20 41 -17
-67 9 -196 52 -272 90 -38 19 -68 37 -68 39 0 3 21 -5 48 -18 26 -13 74 -34
106 -47z"/>
<path d="M3517 2844 c-20 -27 -53 -31 -81 -9 -33 25 -83 19 -103 -11 -29 -45
-16 -179 19 -182 7 -1 25 -4 40 -8 40 -9 78 32 78 85 0 31 4 41 20 46 28 9 52
48 48 78 l-3 25 -18 -24z"/>
<path d="M3350 2633 c0 -9 40 -36 45 -31 2 2 -8 11 -21 21 -13 10 -24 14 -24
10z"/>
<path d="M2787 2741 c-39 -35 -54 -38 -83 -16 -29 22 -34 18 -22 -15 11 -34
35 -50 72 -50 21 0 26 -5 26 -24 0 -36 46 -86 79 -86 15 0 32 5 39 12 19 19
14 -3 -5 -26 -18 -21 -18 -21 5 -2 68 58 36 226 -46 234 -22 2 -39 -5 -65 -27z"/>
<path d="M1901 2551 c57 -37 89 -72 133 -145 42 -69 45 -83 14 -62 -27 19 -82
21 -96 4 -8 -10 -1 -13 29 -13 45 -1 77 -27 116 -93 14 -23 28 -40 32 -37 15
8 -10 119 -40 181 -34 72 -99 143 -157 173 -61 31 -83 26 -31 -8z"/>
<path d="M3607 2360 c-3 -8 -14 -55 -26 -105 -67 -278 -263 -495 -521 -575
l-55 -18 40 -17 c70 -29 181 -64 257 -81 82 -19 303 -22 353 -6 22 7 1 8 -75
4 -58 -2 -139 1 -180 7 -73 11 -254 61 -247 68 2 2 57 -6 123 -18 196 -35 359
-19 549 52 73 27 66 35 -9 9 -87 -30 -209 -50 -295 -49 l-76 1 79 14 c138 25
323 96 417 161 l27 18 -65 80 c-97 119 -160 217 -230 350 -34 66 -64 113 -66
105z"/>
<path d="M2910 2151 c0 -15 45 -61 60 -61 15 0 80 28 80 34 0 3 -20 3 -45 -1
-39 -5 -49 -2 -70 17 -14 13 -25 18 -25 11z"/>
<path d="M2312 1734 c48 -68 194 -203 278 -258 87 -58 212 -119 221 -108 4 4
19 59 33 122 15 63 29 122 32 131 4 14 -13 17 -128 22 -156 6 -270 35 -386 98
-41 21 -76 39 -78 39 -3 0 10 -21 28 -46z"/>
<path d="M3032 790 c29 -44 55 -80 58 -80 3 0 11 4 19 9 12 7 1 24 -48 80 -35
39 -67 71 -72 71 -5 0 15 -36 43 -80z"/>
<path d="M3111 701 c-12 -8 -6 -22 29 -78 24 -37 45 -70 47 -72 2 -3 17 8 33
24 l30 29 -52 53 c-54 55 -63 59 -87 44z"/>
<path d="M3233 560 c-32 -29 -32 -29 -15 -60 16 -28 21 -30 72 -30 84 0 87 9
27 67 l-52 52 -32 -29z"/>
</g>
</svg>
